<svg
   xmlns="http://www.w3.org/2000/svg"
   viewBox="0 0 127 127">
   <path
      id="path858"
      style="fill:#ffffff;fill-opacity:1;stroke:none;stroke-width:9.476;stroke-linecap:round;stroke-linejoin:round"
      d="m 116.75726,4.9826433 c -0.0169,2.138e-4 -0.0337,4.789e-4 -0.0507,0.00103 -0.53975,0.020889 -1.0618,0.1917573 -1.50275,0.4919596 L 88.06702,23.903969 C 80.948825,19.67074 72.847376,17.438882 64.596617,17.438731 55.756933,17.43896 47.10073,20.000507 39.646722,24.821744 L 11.625692,8.8454568 C 9.1455753,7.4399046 6.3424293,10.122636 7.7902683,12.516034 L 24.740137,40.398053 c -4.293332,7.298332 -6.559864,15.639531 -6.559807,24.139093 3.5e-5,9.108453 2.60283,18.021485 7.4936,25.659416 L 7.8243743,117.89204 c -1.579075,2.45117 1.414331,5.24985 3.9160397,3.66127 L 39.32271,104.03965 c 7.52439,4.95628 16.303035,7.59427 25.273907,7.59437 8.857766,7e-5 17.530384,-2.57139 24.994343,-7.41092 l 25.00364,15.2616 c 2.4353,1.4749 5.31922,-1.12498 3.94704,-3.55844 L 103.72498,89.87255 c 4.75972,-7.567678 7.28874,-16.358012 7.28896,-25.335404 -2.7e-4,-9.126569 -2.61383,-18.056487 -7.52306,-25.703855 L 119.30749,8.890932 c 0.95793,-1.811347 -0.43821,-3.9507191 -2.55023,-3.9082887 z M 106.62868,18.356504 c 1.94131,0.02245 3.5301,2.262359 2.08307,4.107243 -8.88149,11.290086 -18.03737,23.008077 -19.70163,36.513016 -1.39946,12.988078 5.66762,25.469728 13.01419,36.983273 0.0176,0.02835 0.0343,0.05682 0.0506,0.08578 0.74571,1.276654 2.17561,3.314901 3.48609,5.185224 1.31047,1.87031 2.41479,3.23841 3.06596,4.81262 1.00311,2.42331 -1.9785,4.55952 -4.10466,2.94091 -10.55482,-8.0477 -21.00676,-16.489777 -33.525595,-19.818955 -0.0018,-0.0016 -0.0024,-0.003 -0.0036,-0.0041 -9.412131,-2.528499 -19.560884,0.97528 -27.9616,6.159314 -0.0113,0.0054 -0.02326,0.01104 -0.03462,0.01654 -6.890797,4.113596 -13.332275,8.987911 -19.761583,13.974351 -2.315524,1.78856 -5.467437,-0.88089 -3.916557,-3.31711 C 27.137085,93.780753 35.587757,81.677259 37.714022,68.088868 39.561227,55.516148 33.015364,43.210491 25.891488,32.035256 23.804042,28.7716 21.614533,25.549821 19.374056,22.349025 c -1.206081,-1.724761 0.12612,-4.037823 2.285649,-3.968233 0.543233,0.01693 1.068886,0.194353 1.503784,0.507979 10.719417,7.740185 21.16187,16.066813 33.614485,19.220533 9.964756,2.497857 20.48684,-1.590585 29.497936,-6.900871 0.007,-0.0041 0.0145,-0.0088 0.0217,-0.01292 6.44217,-3.720629 12.59362,-7.971135 18.73168,-12.319662 0.46113,-0.326036 0.94304,-0.485317 1.41025,-0.514697 0.0633,-0.004 0.12651,-0.0054 0.18914,-0.0047 z" />
</svg>
