<svg
   xmlns="http://www.w3.org/2000/svg"
   viewBox="0 0 127 127">
   <path
      id="path844"
      style="fill:#ffffff;fill-opacity:1;"
      d="M 239.73047 57.667969 A 182.33252 182.33252 0 0 0 142.8457 85.707031 L 240 182.86328 L 337.15625 85.707031 A 182.33252 182.33252 0 0 0 240 57.667969 A 182.33252 182.33252 0 0 0 239.73047 57.667969 z M 85.707031 142.84375 A 182.33252 182.33252 0 0 0 57.667969 240 A 182.33252 182.33252 0 0 0 85.707031 337.1543 L 182.86328 240 L 85.707031 142.84375 z M 394.29297 142.8457 L 297.13672 240 L 394.29297 337.15625 A 182.33252 182.33252 0 0 0 422.33203 240 A 182.33252 182.33252 0 0 0 394.29297 142.8457 z M 240 297.13672 L 142.84375 394.29297 A 182.33252 182.33252 0 0 0 240 422.33203 A 182.33252 182.33252 0 0 0 337.1543 394.29297 L 240 297.13672 z "
      transform="scale(0.26458333)" />
</svg>
