<svg
   xmlns="http://www.w3.org/2000/svg"
   viewBox="0 0 127 127">
   <path
      id="path833"
      style="fill:#ffffff;fill-opacity:1;"
      d="M 239.00391 33.554688 C 196.95191 33.805908 154.95569 46.515017 120.6875 71.363281 C 54.495795 117.01382 20.433627 203.55661 37.753906 282.07617 C 39.636649 291.68731 42.268773 301.10356 45.576172 310.25977 L 101.20117 278.14453 A 143.94 143.94673 60 0 1 167.92969 115.4043 A 143.94 143.94673 60 0 1 168.0293 115.3457 A 143.94 143.94673 60 0 1 342.43359 138.86914 L 397.92188 106.83398 C 382.99952 89.151886 365.1172 73.969184 345.17969 62.205078 C 313.25745 42.810503 276.10861 33.333022 239.00391 33.554688 z M 434.41992 169.74219 L 378.79883 201.85547 A 143.94 143.94673 60 0 1 311.96875 364.6543 A 143.94 143.94673 60 0 1 137.56641 341.13086 L 82.183594 373.10742 C 111.30451 407.46832 151.37822 432.60109 195.78125 441.78711 C 273.41039 459.75248 359.50409 427.42475 406.11523 362.79688 C 447.29385 308.46665 457.32692 233.45529 434.41992 169.74219 z "
      transform="scale(0.26458333)" />
</svg>
